<?xml version="1.0" encoding="UTF-8"?>
<svg id="Layer_1" xmlns="http://www.w3.org/2000/svg" version="1.1" viewBox="0 0 983 982.9">
  <!-- Generator: Adobe Illustrator 30.2.1, SVG Export Plug-In . SVG Version: 2.1.1 Build 1)  -->
  <defs>
    <style>
      .st0 {
        fill: #3dae2b;
      }

      .st1 {
        fill: #6e6f71;
      }

      .st2 {
        fill: #fff;
      }
    </style>
  </defs>
  <path class="st1" d="M982.95,491.45c0,271.43-220.02,491.45-491.45,491.45S.05,762.88.05,491.45,220.2,0,491.5,0s491.45,220.02,491.45,491.45"/>
  <g>
    <path class="st2" d="M34.98,491.57c.62,90.11,67.92,156.67,151.98,156.67s118.33-44.99,135.22-90.84h26.26c-24.16,74.7-80,115.62-161.35,115.62S10.21,593.64,10.21,492.81s77.29-182.92,172.81-182.92,174.17,94.17,172.81,181.57H34.98v.12h0ZM328.84,466.67c-12.08-74.57-73.34-131.15-145.94-131.15s-133.86,56.58-145.2,131.15h291.15Z"/>
    <path class="st0" d="M943.92,665h-88.75v-202.4c0-20.22-6.78-68.53-64.59-68.53s-67.3,29.58-67.3,68.53v202.4h-89.49v-202.4c0-20.22-6.04-68.53-64.59-68.53s-66.56,29.58-66.56,68.53v202.4h-89.49v-346.37h85.42v33.65c21.57-26.26,51.77-42.28,89.49-42.28s79.38,18.12,103.54,49.06c24.9-30.32,61.26-49.06,105.64-49.06,92.82,0,146.56,61.88,146.56,152.6v202.4h.12Z"/>
  </g>
</svg>